<svg xmlns="http://www.w3.org/2000/svg" width="400" height="400" viewBox="0 0 400 400">
  <defs>
    <linearGradient id="g1" x1="0" y1="0" x2="1" y2="1">
      <stop offset="0%" stop-color="#ffd8e1"/>
      <stop offset="100%" stop-color="#e6dcff"/>
    </linearGradient>
    <style>
      .bg { fill: var(--paper, #fffdfb); }
    </style>
  </defs>
  <rect width="400" height="400" class="bg"/>

  <!-- pastel stars: small 4-point crosses; distributed in grid for seamless tiling -->
  <g opacity="0.9">
    <g fill="#ffc1d3">
      <path d="M20 20h6v-2h2v-6h-2v-2h-6v2h-2v6h2z" transform="translate(0,0) scale(0.7)"/>
      <path d="M20 20h6v-2h2v-6h-2v-2h-6v2h-2v6h2z" transform="translate(200,0) scale(0.7)"/>
      <path d="M20 20h6v-2h2v-6h-2v-2h-6v2h-2v6h2z" transform="translate(0,200) scale(0.7)"/>
      <path d="M20 20h6v-2h2v-6h-2v-2h-6v2h-2v6h2z" transform="translate(200,200) scale(0.7)"/>
    </g>
    <g fill="#b6dbff">
      <path d="M20 20h6v-2h2v-6h-2v-2h-6v2h-2v6h2z" transform="translate(100,100) scale(0.7)"/>
      <path d="M20 20h6v-2h2v-6h-2v-2h-6v2h-2v6h2z" transform="translate(300,100) scale(0.7)"/>
      <path d="M20 20h6v-2h2v-6h-2v-2h-6v2h-2v6h2z" transform="translate(100,300) scale(0.7)"/>
      <path d="M20 20h6v-2h2v-6h-2v-2h-6v2h-2v6h2z" transform="translate(300,300) scale(0.7)"/>
    </g>
    <g fill="#ffe9a8" opacity="0.9">
      <path d="M20 20h6v-2h2v-6h-2v-2h-6v2h-2v6h2z" transform="translate(50,250) scale(0.6)"/>
      <path d="M20 20h6v-2h2v-6h-2v-2h-6v2h-2v6h2z" transform="translate(250,50) scale(0.6)"/>
    </g>
    <g fill="#bff0de" opacity="0.85">
      <path d="M20 20h6v-2h2v-6h-2v-2h-6v2h-2v6h2z" transform="translate(50,50) scale(0.6)"/>
      <path d="M20 20h6v-2h2v-6h-2v-2h-6v2h-2v6h2z" transform="translate(250,250) scale(0.6)"/>
    </g>
  </g>
</svg>


